<svg width="97" height="53" viewBox="0 0 97 53" fill="none" xmlns="http://www.w3.org/2000/svg" preserveAspectRatio="xMinYMin meet">
<g clip-path="url(#clip0_406_8752)">
<path d="M10.8778 4.97553C11.1866 4.74248 18.9357 -1.07226 28.4269 0.174589C38.1104 1.44474 44.5427 6.78171 49.8098 13.3597C55.3507 20.3048 58.7241 28.386 54.4184 37.009C51.0275 43.8026 47.9745 45.3058 36.8868 49.9378C18.1667 57.751 6.05942 45.4165 2.60437 37.7665C-0.477789 30.9496 -3.62404 16.8555 10.872 4.98136H10.8837L10.8778 4.97553ZM29.767 1.62536C21.7208 0.564957 14.9913 4.88231 13.4881 5.93689L13.3191 6.05924C13.2259 6.12333 13.1793 6.16412 13.1793 6.16412C-0.501093 17.3683 2.48202 30.6874 5.38939 37.1314C8.64634 44.3619 20.0719 56.0031 37.7433 48.6385C48.225 44.2629 50.3749 43.4239 53.8475 36.9391C58.2639 28.6656 54.8205 20.2873 49.6991 14.1812C44.5719 8.09265 38.9144 2.8256 29.767 1.62536Z" fill="#FF3B5A"/>
<path d="M18.9765 21.9888C19.9161 21.9888 20.6779 21.2245 20.6779 20.2817C20.6779 19.3388 19.9161 18.5745 18.9765 18.5745C18.0369 18.5745 17.2752 19.3388 17.2752 20.2817C17.2752 21.2245 18.0369 21.9888 18.9765 21.9888Z" fill="white"/>
<path d="M51.045 20.2817C51.045 21.2245 50.2833 21.9888 49.3437 21.9888C48.4041 21.9888 47.6424 21.2245 47.6424 20.2817C47.6424 19.3388 48.4041 18.5745 49.3437 18.5745C50.2833 18.5745 51.045 19.3388 51.045 20.2817Z" fill="white"/>
<path d="M46.1974 18.8192C45.5332 18.6852 45.1545 18.6561 44.5486 18.6561C41.1285 18.6561 39.4563 20.171 39.4563 23.4221V23.7192H37.7259V26.2887H39.4563V37.5802H42.5618V26.2887H45.7488V23.7192H42.5618V23.5561C42.5618 22.1053 43.0861 21.2955 44.9389 21.2955C45.3876 21.2955 45.8071 21.3479 46.1974 21.4295V18.8192Z" fill="white"/>
<path d="M31.0372 23.626C34.1018 23.626 35.9255 25.304 35.9255 28.7823V37.5802H32.82V29.2251C32.82 27.1276 31.8762 26.2595 30.0525 26.2595C28.7124 26.2595 27.5122 26.9645 26.947 28.1414V37.5627H23.8416V23.7134H26.8422V25.8109C27.786 24.5233 29.2193 23.6202 31.043 23.6202L31.0372 23.626Z" fill="white"/>
<path d="M20.6487 23.7192H17.5432V37.5802H20.6487V23.7192Z" fill="white"/>
<path d="M50.8411 23.7192H47.7356V37.5802H50.8411V23.7192Z" fill="white"/>
<path d="M66.1295 28.7823C66.1295 25.304 64.2942 23.626 61.2412 23.626L61.247 23.6202C59.4233 23.6202 57.9901 24.5233 57.0462 25.8109V23.7134H54.0456V37.5627H57.151V28.1414C57.7162 26.9645 58.9164 26.2595 60.2565 26.2595C62.0802 26.2595 63.024 27.1276 63.024 29.2251V37.5802H66.1295V28.7823Z" fill="white"/>
<path d="M72.3171 23.7192H69.2117V37.5802H72.3171V23.7192Z" fill="white"/>
<path d="M78.7611 23.7192V18.6677H75.6557V23.7192H73.9252V26.2886H75.6557V32.9773C75.6557 35.9546 77.223 37.5802 80.41 37.5802C81.0159 37.5802 81.5461 37.5511 82.1113 37.4171V34.8068L82.0046 34.8196C81.6048 34.8674 81.2417 34.9108 80.8295 34.9001C79.437 34.9001 78.7611 34.3582 78.7611 32.7326V26.2886H81.7326V23.7192H78.7611Z" fill="white"/>
<path d="M85.747 23.7192L89.5574 34.3058L93.3504 23.7192H96.485L91.014 37.5802L89.0272 42.6841H85.8402L87.9319 37.5802H87.9086L82.4259 23.7192H85.747Z" fill="white"/>
<path d="M72.4511 20.2817C72.4511 21.2245 71.6894 21.9888 70.7498 21.9888C69.8102 21.9888 69.0485 21.2245 69.0485 20.2817C69.0485 19.3388 69.8102 18.5745 70.7498 18.5745C71.6894 18.5745 72.4511 19.3388 72.4511 20.2817Z" fill="white"/>
</g>
<defs>
<clipPath id="clip0_406_8752">
<rect width="96.485" height="52.4375" fill="white"/>
</clipPath>
</defs>
</svg>
