<svg xmlns="http://www.w3.org/2000/svg" viewBox="0 0 269.91 269.91" preserveAspectRatio="xMinYMin meet"><path fill="#fff" d="M135 7.93a127 127 0 1 1-127 127 127.16 127.16 0 0 1 127-127M135 0a135 135 0 1 0 135 135A135 135 0 0 0 135 0zm72.61 184c-11.74 14.77-31.27 22.65-51.65 22.65H144.5v-16.51H118v15l-7.67 7.64h91.56l9.42-28.78zM187.23 75.3c-11.76-11.95-26.4-17-52.8-17H64.89l7.66 7.67v107.6l-7.66 7.64h69.54c26.4 0 41-5.1 52.8-17.05 10-10.12 16.07-24.24 16.07-44.43s-6.1-34.31-16.07-44.43zM161 163.05a39.89 39.89 0 0 1-16.51 9.57v-79L152 86h-34v89.34H99.06v-111h23.87c16.54 0 28.94 3.38 38.08 12.31 10.36 10.1 15 25.59 15 43.06S171.37 153 161 163.05z"/></svg>
