<svg xmlns="http://www.w3.org/2000/svg" width="178" height="62" fill="none"><path fill="#fff" d="m85.85 33.684-4.428 10.874-4.428-10.753v-.12H74.36v14.618h1.914V36.706l4.668 11.599h.838l4.787-11.6v11.6h1.914v-14.62l-2.631-.001Zm7.898 4.471h-2.034v10.149h2.034V38.155Zm10.412 10.148v-1.087c-.479.604-1.436 1.33-2.992 1.33-2.274 0-4.907-1.813-4.907-5.317 0-3.141 2.155-5.316 5.146-5.316 1.078 0 2.394.483 2.753.846v-6.162h2.035v15.706h-2.035Zm-.12-7.611c-.359-.363-1.196-.967-2.513-.967-1.795 0-3.231 1.45-3.231 3.504 0 2.175 1.436 3.504 3.231 3.504 1.317 0 2.154-.725 2.513-1.33v-4.711Zm12.327 7.611v-1.087c-.479.604-1.436 1.33-2.992 1.33-2.274 0-4.907-1.813-4.907-5.317 0-3.141 2.155-5.316 5.146-5.316 1.078 0 2.394.483 2.753.846v-6.162h2.035v15.706h-2.035Zm-.12-7.611c-.359-.363-1.196-.967-2.513-.967-1.795 0-3.231 1.45-3.231 3.504 0 2.175 1.436 3.504 3.231 3.504 1.317 0 2.154-.725 2.513-1.33v-4.711Zm6.941 7.974c-.718-.12-2.034-.846-2.034-2.779v-13.29h2.034v13.048c0 .967.719 1.571 1.317 1.692l-1.317 1.329Zm11.848-6.041-1.077 1.087h-6.103c.12 1.208 1.197 3.02 3.59 3.02 1.317 0 2.274-.362 2.992-.845l-.239 1.933c-.718.363-1.676.604-2.992.604-2.872 0-5.386-2.174-5.386-5.316 0-3.504 2.633-5.316 5.027-5.316 2.752 0 4.308 1.933 4.308 3.866 0 .363 0 .725-.12.967Zm-4.188-3.02c-1.317 0-2.633.966-2.872 2.416h5.026v-.242c.12-.966-.718-2.174-2.154-2.174Zm12.087 8.698V33.926h7.659v1.933h-5.505v4.35h4.667v1.812h-4.667v4.47h6.343v1.812h-8.497Zm17.114.242c-.718-.12-1.436-.725-1.556-1.57-.479 1.208-1.556 1.57-2.633 1.57-2.034 0-3.231-1.45-3.231-3.141 0-1.933 1.556-3.142 3.351-3.262l2.393-.242v-.604c0-.967-.479-1.692-1.915-1.692-.957 0-2.034.363-2.752.846l-.359-1.691c.957-.604 2.034-.846 3.351-.846 2.274 0 3.829 1.329 3.829 3.625v4.107c0 .967.479 1.45 1.077 1.571l-1.555 1.329Zm-1.915-4.954-1.915.121c-1.316.121-1.795.846-1.795 1.692 0 .725.598 1.329 1.436 1.329a2.285 2.285 0 0 0 2.274-2.296v-.846Zm19.507-3.866h-3.231v5.437c0 1.208.598 1.57 1.675 1.57.359 0 .718 0 .958-.12l-.24 1.57c-.239.121-.718.121-1.077.121-1.795 0-3.351-1.087-3.351-3.02v-5.558h-2.034v-1.691h2.034V35.98l2.035-1.087v3.14H178l-.359 1.692Zm-84.862-6.199-1.355 1.366 1.354 1.367 1.354-1.366-1.353-1.367Zm73.373 8.494c-.957-.362-1.436-.724-1.436-1.328 0-.604.598-1.088 1.316-1.088 1.077 0 1.796.363 2.274.725l.479-1.691c-.359-.242-1.436-.725-2.633-.725-2.034 0-3.351 1.087-3.351 2.779 0 1.57 1.077 2.537 2.992 3.262.957.362 1.436.725 1.316 1.45 0 .604-.598 1.208-1.555 1.087-.838 0-1.795-.362-2.394-.725l-.479 1.692c.719.483 1.676.725 2.753.725 2.394 0 3.71-1.33 3.71-2.9.12-1.57-.957-2.417-2.992-3.263ZM96.74 28.368c-2.992 0-5.385-2.175-5.385-5.316s2.393-5.316 5.385-5.316 5.385 2.175 5.385 5.316-2.393 5.316-5.385 5.316Zm0-8.82c-1.795 0-3.35 1.45-3.35 3.625s1.555 3.504 3.35 3.504c1.795 0 3.351-1.45 3.351-3.504 0-2.175-1.556-3.625-3.351-3.625Zm23.816 8.82c-.718-.12-1.437-.725-1.556-1.57-.479 1.208-1.556 1.57-2.753 1.57-2.034 0-3.231-1.45-3.231-3.141 0-1.933 1.556-3.141 3.351-3.262l2.393-.242v-.604c0-.967-.478-1.691-1.914-1.691-.958 0-2.035.362-2.753.845l-.359-1.691c.957-.604 2.035-.846 3.351-.846 2.274 0 3.83 1.329 3.83 3.745v4.108c0 .967.478 1.45 1.196 1.571l-1.555 1.208Zm-1.915-4.833-1.915.242c-1.316.12-1.795.846-1.795 1.692 0 .724.598 1.329 1.556 1.329a2.285 2.285 0 0 0 2.273-2.296v-.967h-.119Zm7.3-5.557h-2.034v10.27h2.034v-10.27Zm10.89 2.416c-.957-.604-1.675-.725-2.632-.725-1.796 0-3.471 1.33-3.471 3.504s1.675 3.383 3.59 3.383c.958 0 1.676-.121 2.633-.604l-.239 1.933c-.718.362-1.676.483-2.633.483-2.753 0-5.386-1.933-5.386-5.195 0-3.262 2.633-5.316 5.386-5.316 1.316 0 2.393.242 3.231.725l-.479 1.812Zm-50.742-6.766-4.428 10.753-4.428-10.753H74.48V28.49h2.035V17.011l4.667 11.357v.121h.958l4.667-11.478V28.49h2.034V13.63l-2.752-.002Zm21.542 8.337c-.958-.363-1.437-.604-1.437-1.33 0-.603.479-1.087 1.317-1.087 1.077 0 1.795.363 2.274.604l.359-1.691c-.359-.242-1.436-.604-2.633-.604-2.035 0-3.351 1.208-3.351 2.9 0 1.57 1.077 2.537 3.112 3.262.957.362 1.436.725 1.436 1.45 0 .604-.599 1.208-1.556 1.208-.838 0-1.795-.242-2.513-.725l-.359 1.57c.718.484 1.675.725 2.872.725 2.393 0 3.59-1.329 3.59-3.02 0-1.692-1.077-2.537-3.111-3.262Zm17.332-8.627-1.354 1.367 1.354 1.367 1.354-1.367-1.354-1.367ZM22.062 39.846H9.736v12.445h12.326V39.846ZM22.062 9.883H9.736v12.444h12.326V9.883Z"/><path fill="#fff" d="M9.716 22.295 1 31.095l8.716 8.799 8.716-8.8-8.716-8.799ZM51.742 9.883H39.415v12.444h12.327V9.883ZM30.705 1 21.99 9.8l8.716 8.799 8.716-8.8L30.705 1ZM51.742 39.846H39.415v12.445h12.327V39.846Z"/><path fill="#fff" d="m30.73 43.4-8.717 8.8 8.716 8.8 8.717-8.8-8.716-8.8ZM51.714 22.275l-8.716 8.8 8.716 8.799 8.716-8.8-8.716-8.799Z"/></svg>