<svg fill="#fff" xmlns="http://www.w3.org/2000/svg" width="164.49" height="15.71" preserveAspectRatio="xMinYMin meet"><path d="M2.81.14c.18 0 .2.08.28.32L6.2 12.53c.14.46.18.6.44.6s.38-.14.5-.6L10.21.46c.06-.24.1-.32.28-.32H13c.2 0 .3.08.24.32L10 13.32c-.56 2.14-.92 2.38-3.33 2.38S4 15.48 3.39 13.32L0 .47C0 .23 0 .15.26.15zm24.53 0a.26.26 0 0 1 .3.21.14.14 0 0 1 0 .09v2.14a.25.25 0 0 1-.21.3.14.14 0 0 1-.09 0h-7.17v3.77h6.55a.28.28 0 0 1 .32.24V9a.28.28 0 0 1-.25.3h-6.62v3.57h7.16a.26.26 0 0 1 .3.21.14.14 0 0 1 0 .09v2.2a.25.25 0 0 1-.21.3.14.14 0 0 1-.09 0h-10c-.2 0-.3-.1-.3-.32V.44a.26.26 0 0 1 .21-.3h10.1zm14.51.18c.3.08.46.2.46.54v1.6a.25.25 0 0 1-.21.3.14.14 0 0 1-.09 0h-4.09c-2.75 0-3.23 1.2-3.23 5.09S35.17 13 37.92 13H42a.26.26 0 0 1 .3.21.14.14 0 0 1 0 .09v1.62c0 .32-.16.44-.46.52a19.91 19.91 0 0 1-3.93.3c-5.09 0-6.41-1.79-6.41-7.84S32.83 0 37.92 0a21.53 21.53 0 0 1 3.93.32zM57.08.14a.28.28 0 0 1 .32.24v2.2a.28.28 0 0 1-.25.3h-4.24v12.39c0 .22-.1.32-.3.32h-2.54c-.2 0-.3-.1-.3-.32V2.87H45.6a.27.27 0 0 1-.3-.21V.43a.26.26 0 0 1 .21-.3h11.57zm16.19 7.74c0 6-1.38 7.8-6.47 7.8s-6.47-1.78-6.47-7.8S61.71 0 66.8 0s6.47 1.81 6.47 7.88zm-9.76 0c0 3.87.54 5.07 3.29 5.07s3.29-1.2 3.29-5.07-.54-5.13-3.29-5.13S63.47 4 63.47 7.88zM89 5.15c0 3-.8 4.21-3 4.65l3.39 5.39c.16.22.06.4-.24.4h-2.53a.79.79 0 0 1-.8-.44L82.55 10h-1.84v5.27c0 .26-.06.32-.3.32h-2.53c-.24 0-.3-.06-.3-.32V.52c0-.22.06-.26.3-.28C79.64.08 81.55 0 83.19 0 87.56 0 89 1.16 89 5.15zm-8.29-2.39v4.83h2.16c2.38 0 3-.32 3-2.35s-.62-2.47-3-2.47zM108.8.42c.24.08.36.18.36.36V2.4c0 .26-.12.36-.38.36h-4.73c-1.22 0-1.84.42-1.84 1.3v.26c0 .7.28 1.16 1.18 1.5l3.73 1.46c1.91.76 2.77 1.7 2.77 4v.56c0 3-2.3 3.83-5.75 3.83a31.34 31.34 0 0 1-4.93-.42.36.36 0 0 1-.34-.39v-1.54c0-.24.12-.36.38-.36h5.67c1.2 0 1.82-.36 1.82-1.24v-.26c0-.86-.4-1.26-1.44-1.66l-3.89-1.48C99.75 7.7 99 6.56 99 4.25v-.44c0-3 2.06-3.81 5.59-3.81a20.87 20.87 0 0 1 4.21.42zm17.38-.28c.22 0 .3.08.3.3v7.44c0 6.25-1.26 7.8-6.31 7.8s-6.33-1.56-6.33-7.8V.44c0-.22.08-.3.3-.3h2.53c.22 0 .3.08.3.3v7.44c0 4 .64 5.07 3.19 5.07s3.17-1 3.17-5.07V.44c0-.22.08-.3.3-.3zm7.82 0c.2 0 .3.1.3.32v14.81c0 .22-.1.32-.3.32h-2.5c-.2 0-.3-.1-.3-.32V.46c0-.22.1-.32.3-.32zm15.83 0a.28.28 0 0 1 .32.24v2.2a.28.28 0 0 1-.25.3h-4.24v12.39c0 .22-.1.32-.3.32h-2.53c-.2 0-.3-.1-.3-.32V2.87h-4.17a.27.27 0 0 1-.3-.21V.43a.26.26 0 0 1 .21-.3h11.56zm14.35 0a.26.26 0 0 1 .3.21.14.14 0 0 1 0 .09v2.14a.25.25 0 0 1-.21.3.14.14 0 0 1-.09 0H157v3.77h6.54a.28.28 0 0 1 .32.24V9a.28.28 0 0 1-.25.3H157v3.57h7.16a.26.26 0 0 1 .3.21.14.14 0 0 1 0 .09v2.2a.25.25 0 0 1-.21.3.14.14 0 0 1-.09 0h-10c-.2 0-.3-.1-.3-.32V.44a.26.26 0 0 1 .21-.3h10.09z"></path></svg>
