<svg xmlns="http://www.w3.org/2000/svg" xml:space="preserve" width="256" height="256"><path d="M1.48 29.91h18.657v60.01H1.48V29.91zM10.809.08c5.963 0 10.809 4.846 10.809 10.819 0 5.967-4.846 10.813-10.809 10.813C4.832 21.712 0 16.866 0 10.899 0 4.926 4.832.08 10.809.08M31.835 29.91h17.89v8.206h.255c2.49-4.72 8.576-9.692 17.647-9.692C86.514 28.424 90 40.849 90 57.007V89.92H71.357V60.737c0-6.961-.121-15.912-9.692-15.912-9.706 0-11.187 7.587-11.187 15.412V89.92H31.835V29.91z" transform="matrix(2.81 0 0 2.81 1.407 1.407)" fill="#fff" /></svg>
