<?xml version="1.0" standalone="no"?>
<!DOCTYPE svg PUBLIC "-//W3C//DTD SVG 20010904//EN"
 "http://www.w3.org/TR/2001/REC-SVG-20010904/DTD/svg10.dtd">
<svg version="1.0" xmlns="http://www.w3.org/2000/svg"
 width="260.000000pt" height="260.000000pt" viewBox="0 0 260.000000 260.000000"
 preserveAspectRatio="xMidYMid meet">
<metadata>
Created by potrace 1.14, written by Peter Selinger 2001-2017
</metadata>
<g transform="translate(0.000000,260.000000) scale(0.100000,-0.100000)"
fill="#000000" stroke="none">
<path d="M1088 2510 c-14 -11 -28 -29 -31 -41 -5 -19 -4 -20 12 -5 22 20 40
20 63 -1 14 -12 21 -14 30 -5 8 8 15 7 25 -4 8 -8 21 -14 29 -14 23 0 16 30
-15 61 -35 35 -77 38 -113 9z"/>
<path d="M1416 2499 c-34 -27 -33 -39 4 -39 17 0 33 -7 40 -17 10 -17 10 -17
20 0 14 22 26 22 47 -3 24 -27 36 -5 17 32 -26 51 -82 63 -128 27z"/>
<path d="M1748 2494 c-39 -20 -42 -41 -7 -49 16 -4 29 -11 29 -16 0 -15 22
-10 35 8 11 15 15 14 38 -9 20 -20 27 -23 31 -11 18 46 -76 103 -126 77z"/>
<path d="M660 2425 c-7 -8 -9 -15 -4 -15 16 -1 -41 -29 -58 -30 -10 0 -18 -4
-18 -10 0 -5 13 -7 30 -4 17 4 36 1 44 -5 12 -10 17 -8 25 8 8 14 8 22 0 27
-6 3 -9 15 -6 25 6 23 3 24 -13 4z"/>
<path d="M725 2401 c-3 -5 -1 -12 5 -16 12 -7 30 2 30 16 0 12 -27 12 -35 0z"/>
<path d="M1050 2389 c0 -24 23 -21 28 4 2 10 -3 17 -12 17 -10 0 -16 -9 -16
-21z"/>
<path d="M1175 2400 c-8 -13 20 -24 41 -16 20 8 9 26 -16 26 -10 0 -22 -5 -25
-10z"/>
<path d="M1130 2390 c0 -5 5 -10 10 -10 6 0 10 5 10 10 0 6 -4 10 -10 10 -5 0
-10 -4 -10 -10z"/>
<path d="M1368 2394 c-10 -9 4 -44 17 -44 15 0 28 27 19 41 -6 10 -28 12 -36
3z"/>
<path d="M1505 2388 c-3 -7 -4 -26 -2 -43 2 -29 1 -30 -37 -28 -33 2 -37 1
-24 -10 9 -6 18 -21 20 -31 4 -28 26 -31 30 -5 6 42 26 32 29 -14 l4 -45 -27
14 c-17 9 -28 10 -28 4 0 -14 -13 -12 -36 5 -19 15 -19 15 1 8 19 -7 19 -6 4
17 -9 13 -36 32 -60 41 -24 8 -57 21 -74 28 -47 21 -127 41 -160 41 -54 0
-145 -29 -193 -62 -37 -25 -42 -33 -28 -38 14 -4 8 -11 -26 -28 -24 -13 -56
-32 -73 -42 -42 -28 -73 -40 -98 -40 -24 0 -77 -47 -77 -67 0 -8 -5 -11 -11
-8 -6 4 -9 1 -8 -6 1 -8 -3 -27 -9 -42 -7 -16 -12 -38 -12 -49 0 -12 -7 -30
-17 -40 -18 -20 -4 -25 16 -5 7 6 -4 -22 -25 -63 -24 -47 -40 -68 -42 -57 -4
19 -32 24 -32 5 0 -6 -3 -9 -6 -5 -3 3 0 19 8 34 18 36 13 53 -15 53 -14 0
-26 10 -34 25 -11 25 -2 42 17 30 15 -9 50 4 50 20 0 8 13 15 32 17 18 2 31 8
28 13 -3 6 -12 9 -20 8 -8 -2 -27 0 -43 3 -24 5 -27 10 -27 44 0 34 -3 39 -28
44 -43 9 -155 10 -174 2 -9 -4 -36 -35 -60 -69 -37 -54 -44 -71 -48 -127 -5
-62 -6 -65 -32 -68 -24 -3 -28 -8 -28 -37 0 -23 -7 -39 -22 -49 -19 -14 -19
-16 -5 -22 24 -9 21 -40 -5 -49 -20 -6 -20 -8 -5 -12 21 -5 22 -19 2 -26 -9
-4 -13 -17 -11 -42 4 -45 13 -54 29 -31 11 15 21 17 58 11 24 -5 112 -8 196
-7 171 1 166 3 161 -77 -2 -43 -16 -52 -38 -26 -21 26 -23 9 -3 -27 10 -18 18
-34 19 -35 0 -1 33 -5 74 -8 41 -4 76 -7 77 -9 2 -1 -9 -9 -23 -16 -20 -11
-29 -12 -45 -1 -33 20 -288 12 -380 -12 -53 -14 -60 -13 -100 5 -24 10 -57 18
-74 16 -25 -2 -30 -7 -30 -28 l0 -25 115 -1 c226 -2 556 -13 587 -20 20 -4 33
-14 37 -27 5 -20 4 -20 -370 -13 l-374 8 0 -29 c1 -48 29 -244 40 -279 l12
-34 255 0 255 0 -33 -40 c-24 -28 -65 -55 -139 -91 -58 -29 -107 -55 -110 -58
-3 -3 -21 -14 -40 -24 -19 -10 -46 -26 -60 -36 l-24 -19 39 -64 c181 -297 485
-512 835 -589 88 -20 132 -24 275 -23 178 1 269 15 418 65 149 51 337 162 441
261 l56 53 -21 74 c-11 41 -36 99 -57 130 -45 67 -146 171 -187 191 -16 8 -56
30 -87 48 -32 19 -77 38 -100 44 -60 13 -208 70 -208 80 0 4 26 6 58 3 31 -2
253 -7 493 -10 l436 -5 12 42 c31 117 40 228 19 228 -7 0 -5 5 5 11 22 13 25
130 3 152 -10 10 -11 18 -4 25 5 5 8 18 6 28 -3 16 -4 17 -20 1 -11 -12 -19
-14 -23 -6 -4 6 -17 8 -30 5 -15 -4 -28 1 -40 13 -9 11 -22 18 -28 15 -11 -4
-138 -19 -242 -29 -60 -6 -109 -16 -122 -27 -6 -5 -56 -11 -110 -12 -105 -3
-181 -14 -199 -27 -14 -11 -5 -127 13 -162 8 -16 12 -35 9 -43 -4 -11 -12 -10
-43 7 -32 18 -42 19 -75 10 -26 -8 -44 -9 -57 -2 -10 6 -21 7 -25 4 -3 -3 -6
1 -6 11 0 9 -4 14 -10 11 -5 -3 -10 -2 -10 4 0 6 19 10 43 10 59 -1 133 34
141 66 8 33 1 45 -29 45 -13 0 -27 5 -30 10 -3 6 4 10 17 10 34 0 44 11 44 45
-1 27 -5 30 -41 36 -27 5 -49 2 -67 -7 -17 -9 -28 -10 -28 -4 0 5 -6 10 -12
10 -14 1 -58 34 -58 44 0 3 12 6 26 6 20 0 24 -4 20 -18 -5 -14 0 -18 24 -20
17 -1 39 2 50 8 14 8 26 7 41 -1 20 -10 21 -9 14 30 -6 37 -4 44 24 70 17 16
31 36 31 45 0 27 -61 20 -111 -14 -24 -16 -49 -30 -55 -30 -14 0 -26 28 -18
41 3 5 -2 9 -10 9 -8 0 -23 -13 -33 -30 -9 -16 -21 -30 -25 -30 -4 0 -16 -9
-27 -21 -14 -15 -26 -19 -41 -14 -17 5 -21 4 -15 -6 6 -11 5 -11 -5 -2 -10 10
-21 6 -53 -19 -32 -26 -41 -29 -49 -17 -7 11 -9 8 -5 -9 4 -15 -2 -28 -19 -41
-22 -17 -23 -21 -9 -34 19 -20 19 -31 0 -23 -8 3 -15 1 -15 -4 0 -6 5 -10 10
-10 6 0 10 -5 10 -11 0 -5 -5 -7 -11 -4 -5 4 -19 -1 -29 -10 -10 -9 -24 -18
-32 -19 -7 -1 -23 -8 -35 -14 -16 -9 -23 -9 -23 -2 0 7 -8 9 -21 5 -13 -4 -19
-3 -15 3 3 5 -3 17 -14 27 -11 10 -20 26 -20 37 0 10 -4 18 -9 18 -5 0 -27 19
-49 42 -23 23 -44 39 -48 35 -4 -3 -1 -13 6 -22 16 -20 -3 -45 -35 -45 -27 0
-39 -22 -22 -40 19 -19 -51 -2 -93 23 -48 29 -65 52 -90 119 -25 64 -21 105
11 134 33 30 159 16 159 -17 0 -7 -11 -9 -30 -5 -16 3 -44 9 -61 12 -18 4 -41
1 -55 -6 -19 -11 -24 -21 -24 -54 1 -23 9 -57 20 -76 21 -39 22 -37 20 38 -2
55 3 60 34 37 11 -8 29 -13 40 -9 16 4 13 -2 -12 -23 -37 -32 -40 -51 -12 -81
22 -23 73 -29 99 -13 12 8 13 16 3 47 -9 29 -8 42 3 64 22 43 43 56 67 41 19
-12 20 -10 13 21 -5 24 -4 29 4 18 9 -13 11 -13 11 2 0 10 9 33 20 53 23 41
26 59 8 49 -10 -5 -10 -4 -1 6 8 9 8 21 1 41 -8 23 -6 34 12 59 l21 30 -27
-11 c-27 -10 -27 -9 -11 9 27 30 20 44 -9 15 -14 -14 -28 -22 -32 -18 -4 4 -1
10 6 12 6 3 12 9 12 14 0 6 -9 5 -21 -2 -41 -21 -9 10 37 37 24 14 44 31 44
37 0 7 29 40 63 73 75 74 112 86 263 82 90 -3 100 -5 102 -22 0 -11 10 -29 22
-40 l20 -20 0 44 c0 28 -10 66 -27 100 -14 30 -25 60 -24 65 2 6 5 18 7 28 2
10 6 28 9 39 4 11 1 26 -9 37 -13 14 -13 20 -2 43 8 15 12 29 8 32 -10 11 -43
6 -47 -6z m-485 -95 c0 -12 -3 -14 -8 -7 -4 7 -16 14 -27 17 -15 4 -14 5 8 6
20 1 27 -4 27 -16z m30 13 c0 -3 -4 -8 -10 -11 -5 -3 -10 -1 -10 4 0 6 5 11
10 11 6 0 10 -2 10 -4z m481 -122 c24 -29 2 -33 -25 -5 -25 26 -26 29 -8 24
12 -3 26 -11 33 -19z m-870 -131 c-12 -20 -14 -14 -5 12 4 9 9 14 11 11 3 -2
0 -13 -6 -23z m-241 -92 c25 -7 24 -7 -7 -14 -32 -6 -32 -7 -30 -64 2 -53 0
-58 -20 -61 -17 -3 -23 2 -23 16 0 23 -18 32 -65 32 -37 0 -56 17 -34 31 8 5
29 9 47 9 41 0 75 17 68 35 -9 25 13 30 64 16z m57 -195 c-4 -9 2 -17 14 -21
10 -4 19 -11 19 -18 0 -6 7 -2 15 9 14 18 14 18 15 -6 0 -42 -12 -100 -21
-100 -5 0 -6 13 -3 29 6 30 6 30 -47 33 -59 3 -68 14 -50 61 8 20 18 27 37 27
19 0 25 -4 21 -14z m-85 -106 c3 -21 -2 -26 -24 -28 -18 -2 -28 2 -29 10 -2
22 3 63 8 72 9 13 42 -27 45 -54z m1333 -290 c3 -5 1 -10 -4 -10 -6 0 -11 5
-11 10 0 6 2 10 4 10 3 0 8 -4 11 -10z m-795 -89 c0 -10 9 -26 20 -36 11 -10
20 -24 20 -32 0 -7 4 -13 8 -13 4 0 7 -19 7 -42 -1 -24 3 -49 8 -56 7 -8 6
-21 -1 -37 -7 -15 -8 -26 -2 -30 7 -4 6 -13 0 -26 -8 -14 -7 -19 1 -19 7 0 9
-3 6 -6 -3 -4 -2 -15 4 -25 5 -11 6 -19 1 -19 -5 0 -8 -12 -6 -27 1 -15 -6
-39 -17 -54 -10 -15 -19 -40 -19 -56 0 -23 -10 -46 -36 -81 -1 -2 -18 0 -38 3
-24 5 -36 13 -36 24 0 11 -3 12 -8 4 -13 -21 -64 19 -99 78 -50 84 -50 84 0
113 59 35 67 55 57 152 -5 43 -10 84 -12 90 -1 6 8 21 22 32 21 19 23 23 10
32 -13 10 -13 11 0 9 26 -3 44 1 37 7 -4 4 3 15 15 25 11 11 16 19 10 19 -7 0
-12 5 -12 10 0 6 13 4 30 -5 17 -9 30 -24 30 -34z m1115 -81 c-3 -5 -12 -10
-18 -10 -7 0 -6 4 3 10 19 12 23 12 15 0z m68 3 c-7 -2 -19 -2 -25 0 -7 3 -2
5 12 5 14 0 19 -2 13 -5z m325 -10 c-10 -2 -26 -2 -35 0 -10 3 -2 5 17 5 19 0
27 -2 18 -5z m-568 -13 c0 -5 -8 -10 -17 -10 -15 0 -16 2 -3 10 19 12 20 12
20 0z m68 3 c-10 -2 -26 -2 -35 0 -10 3 -2 5 17 5 19 0 27 -2 18 -5z m299 -9
c-3 -3 -12 -4 -19 -1 -8 3 -5 6 6 6 11 1 17 -2 13 -5z m-192 -24 c-3 -5 -21
-10 -38 -9 -31 1 -31 1 -7 9 36 11 52 11 45 0z m-1898 -11 c17 -17 4 -39 -23
-39 -26 0 -32 18 -12 38 15 15 21 15 35 1z m161 -20 c4 -19 -27 -34 -41 -20
-14 14 0 43 20 39 10 -2 19 -10 21 -19z m158 9 c8 -12 -24 -40 -37 -32 -5 3
-9 14 -9 25 0 21 34 27 46 7z m137 -185 c-7 -2 -19 -2 -25 0 -7 3 -2 5 12 5
14 0 19 -2 13 -5z m50 -10 c-7 -2 -19 -2 -25 0 -7 3 -2 5 12 5 14 0 19 -2 13
-5z m816 -84 c-3 -38 -11 -75 -18 -82 -8 -8 -11 -7 -12 4 -4 46 17 149 30 149
4 0 4 -32 0 -71z"/>
<path d="M1420 2382 c0 -12 40 -33 50 -27 22 14 9 35 -20 35 -16 0 -30 -3 -30
-8z"/>
<path d="M1694 2375 c-4 -9 -2 -21 5 -28 13 -13 18 -9 23 17 4 24 -20 33 -28
11z"/>
<path d="M1826 2381 c-3 -5 -24 -7 -46 -4 -46 6 -53 -7 -14 -27 22 -12 27 -12
35 0 8 13 10 13 19 0 20 -31 7 -45 -40 -43 -36 2 -41 1 -22 -7 20 -8 22 -16
22 -79 0 -58 3 -69 15 -65 10 4 15 25 17 67 4 82 23 75 23 -8 0 -45 4 -65 12
-65 24 0 39 142 18 160 -13 11 -13 15 0 33 8 12 15 27 15 34 0 15 -46 18 -54
4z"/>
<path d="M2010 2350 c0 -23 25 -27 33 -6 7 16 -1 26 -20 26 -7 0 -13 -9 -13
-20z"/>
<path d="M641 2311 c-20 -13 -6 -42 16 -34 27 9 43 24 37 34 -7 11 -35 11 -53
0z"/>
<path d="M1695 2230 c0 -82 12 -100 28 -41 12 49 5 115 -13 119 -13 2 -16 -11
-15 -78z"/>
<path d="M2009 2293 c-2 -26 3 -149 7 -152 12 -13 22 21 26 84 3 60 1 70 -14
73 -10 2 -18 0 -19 -5z"/>
<path d="M2072 2293 c23 -6 32 -41 26 -104 -3 -27 -1 -49 4 -49 12 0 16 15 23
78 3 30 7 57 10 62 5 9 -30 20 -60 19 -17 -1 -17 -2 -3 -6z"/>
<path d="M418 2251 l-43 -41 60 2 60 3 0 35 c0 50 -25 50 -77 1z"/>
<path d="M2158 2225 c3 -37 0 -60 -9 -71 -12 -14 -11 -16 6 -13 28 6 39 102
14 124 -14 14 -15 10 -11 -40z"/>
<path d="M1660 2056 c0 -13 6 -26 13 -29 22 -7 37 4 37 29 0 19 -5 24 -25 24
-20 0 -25 -5 -25 -24z"/>
<path d="M1815 2060 c-4 -6 -12 -7 -18 -4 -7 4 -3 -2 8 -13 11 -11 35 -23 54
-27 31 -6 33 -4 27 17 -3 12 -6 25 -6 30 0 11 -58 8 -65 -3z"/>
<path d="M1907 2049 c-4 -15 -1 -19 11 -17 21 4 29 38 9 38 -8 0 -17 -9 -20
-21z"/>
<path d="M2012 2053 c2 -14 13 -18 43 -19 22 0 58 -4 79 -8 40 -8 55 2 56 32
0 10 -11 11 -47 6 -60 -10 -71 -10 -106 -1 -24 7 -28 5 -25 -10z"/>
<path d="M2327 2040 c3 -11 14 -20 24 -20 22 0 24 11 7 28 -19 19 -37 14 -31
-8z"/>
<path d="M1708 1963 c-9 -16 -8 -252 1 -276 5 -13 24 -30 43 -37 18 -8 35 -17
38 -22 3 -4 17 -9 30 -10 25 -3 25 -2 33 107 4 61 5 126 2 147 -4 31 -2 35 13
31 19 -5 51 41 38 54 -11 11 -193 17 -198 6z m72 -101 c0 -13 -12 -22 -22 -16
-10 6 -1 24 13 24 5 0 9 -4 9 -8z"/>
<path d="M1625 1950 c4 -6 11 -8 16 -5 14 9 11 15 -7 15 -8 0 -12 -5 -9 -10z"/>
<path d="M480 1934 c0 -8 5 -12 10 -9 6 4 8 11 5 16 -9 14 -15 11 -15 -7z"/>
<path d="M2000 1889 c0 -11 7 -22 15 -25 8 -4 15 -10 15 -15 0 -5 -7 -9 -15
-9 -9 0 -15 -10 -16 -22 -5 -130 -4 -180 4 -185 15 -9 21 6 18 57 -1 35 2 50
11 51 7 1 45 2 83 3 l70 1 0 80 0 80 -92 1 c-86 2 -93 0 -93 -17z"/>
<path d="M2314 1895 c-3 -7 -4 -45 -2 -86 l3 -74 80 0 c100 -1 105 1 105 35 0
33 -37 120 -53 125 -35 11 -129 11 -133 0z"/>
<path d="M1140 1865 c-7 -8 -8 -15 -2 -15 5 0 15 7 22 15 7 8 8 15 2 15 -5 0
-15 -7 -22 -15z"/>
<path d="M1385 1852 c-42 -14 -82 -58 -119 -131 -21 -40 -14 -50 40 -57 70 -8
94 -15 94 -30 0 -10 13 -14 46 -14 38 0 53 6 90 36 42 35 48 46 68 135 9 39
-51 69 -135 68 -35 -1 -73 -4 -84 -7z"/>
<path d="M1620 1792 c0 -40 46 -94 61 -71 12 19 11 86 -1 94 -6 4 -17 2 -24
-4 -9 -7 -16 -7 -24 1 -9 9 -12 4 -12 -20z"/>
<path d="M1940 1570 c0 -5 5 -10 10 -10 6 0 10 5 10 10 0 6 -4 10 -10 10 -5 0
-10 -4 -10 -10z"/>
<path d="M2040 1570 c0 -5 9 -10 20 -10 11 0 20 5 20 10 0 6 -9 10 -20 10 -11
0 -20 -4 -20 -10z"/>
<path d="M150 1511 c0 -10 7 -24 15 -31 13 -11 15 -8 15 19 0 21 -5 31 -15 31
-8 0 -15 -8 -15 -19z"/>
<path d="M1290 1493 c1 -18 18 -35 24 -24 4 6 4 16 1 21 -7 12 -25 13 -25 3z"/>
<path d="M1093 1478 c4 -12 2 -18 -8 -18 -19 0 -19 -34 -1 -50 8 -6 12 -19 9
-28 -5 -16 -4 -16 12 0 15 14 16 20 5 33 -11 13 -10 15 4 9 22 -9 17 27 -9 52
-17 17 -18 17 -12 2z"/>
<path d="M1297 1443 c-4 -3 -7 -11 -7 -17 0 -6 5 -5 12 2 6 6 9 14 7 17 -3 3
-9 2 -12 -2z"/>
<path d="M156 1421 c-4 -7 -5 -15 -2 -18 9 -9 19 4 14 18 -4 11 -6 11 -12 0z"/>
<path d="M868 1378 c5 -5 16 -8 23 -6 8 3 3 7 -10 11 -17 4 -21 3 -13 -5z"/>
</g>
</svg>
